<?xml version="1.0"?>
<svg xmlns="http://www.w3.org/2000/svg" xmlns:xlink="http://www.w3.org/1999/xlink" id="svg" version="1.1" width="400" height="400" viewBox="0, 0, 400,400" style="background-color:transparent;">
  <g id="svgg">
    <path id="path0" d="M216.008 14.100 C 215.739 14.815,215.111 16.390,214.614 17.600 C 214.116 18.810,212.947 21.690,212.016 24.000 C 211.085 26.310,210.164 28.560,209.969 29.000 C 209.408 30.263,202.410 49.874,201.333 53.200 C 198.612 61.604,195.111 73.216,193.796 78.200 C 192.983 81.280,192.071 84.700,191.768 85.800 C 189.820 92.870,185.468 112.890,184.028 121.400 C 183.767 122.940,183.303 125.460,182.996 127.000 C 182.690 128.540,182.152 131.960,181.802 134.600 C 181.453 137.240,180.823 141.920,180.404 145.000 C 178.976 155.480,177.705 170.505,177.204 182.800 C 176.432 201.763,176.842 220.718,178.403 238.200 C 178.835 243.040,179.292 248.260,179.420 249.800 C 179.547 251.340,179.825 253.619,180.037 254.864 C 180.249 256.109,180.861 260.429,181.398 264.464 C 183.314 278.858,187.463 299.970,191.133 314.000 C 191.795 316.530,192.898 320.760,193.584 323.400 C 194.692 327.665,196.026 332.097,201.047 348.200 C 202.914 354.186,202.706 354.110,205.211 349.717 C 208.456 344.023,209.249 342.649,212.203 337.600 C 213.683 335.070,215.298 332.280,215.793 331.400 C 216.287 330.520,218.626 326.470,220.990 322.400 C 223.353 318.330,225.692 314.280,226.186 313.400 C 226.681 312.520,228.281 309.752,229.743 307.250 C 231.204 304.747,232.400 302.627,232.400 302.540 C 232.400 302.452,233.078 301.260,233.906 299.890 C 234.734 298.521,235.627 297.040,235.889 296.600 C 236.313 295.890,239.492 290.376,242.447 285.225 C 243.023 284.221,245.427 280.070,247.791 276.000 C 250.154 271.930,252.492 267.880,252.986 267.000 C 253.481 266.120,255.081 263.352,256.543 260.850 C 258.004 258.347,259.200 256.223,259.200 256.130 C 259.200 256.037,259.797 255.025,260.526 253.881 C 261.255 252.736,262.133 251.260,262.477 250.600 C 262.822 249.940,265.040 246.070,267.407 242.000 C 269.774 237.930,272.115 233.880,272.608 233.000 C 273.102 232.120,274.719 229.330,276.202 226.800 C 277.685 224.270,279.281 221.528,279.749 220.707 C 280.217 219.886,282.291 216.286,284.358 212.707 C 286.425 209.128,288.557 205.390,289.096 204.400 C 289.635 203.410,290.846 201.340,291.788 199.800 C 292.729 198.260,294.557 195.129,295.849 192.842 C 297.142 190.555,298.650 187.921,299.200 186.989 C 300.070 185.514,302.972 180.482,306.447 174.425 C 307.023 173.421,309.408 169.288,311.747 165.239 C 314.086 161.190,316.000 157.812,316.000 157.731 C 316.000 157.650,316.485 156.823,317.078 155.892 C 318.451 153.736,323.200 145.551,323.200 145.340 C 323.200 145.252,323.878 144.060,324.706 142.690 C 325.534 141.321,326.426 139.840,326.687 139.400 C 327.234 138.481,334.880 125.185,336.444 122.435 C 337.018 121.426,338.705 118.530,340.193 116.000 C 341.680 113.470,343.281 110.728,343.749 109.907 C 344.217 109.086,346.293 105.486,348.363 101.907 C 354.263 91.707,354.142 92.070,351.864 91.363 C 351.389 91.215,350.100 90.519,349.000 89.815 C 346.863 88.447,342.665 85.987,339.400 84.188 C 338.300 83.582,336.950 82.776,336.400 82.398 C 335.850 82.019,332.453 80.020,328.851 77.955 C 325.249 75.890,321.534 73.750,320.596 73.200 C 319.658 72.650,316.575 70.871,313.745 69.246 C 310.915 67.622,307.669 65.687,306.532 64.946 C 305.395 64.206,304.342 63.600,304.193 63.600 C 304.043 63.600,302.903 62.991,301.660 62.246 C 296.336 59.057,292.118 56.574,291.000 55.970 C 290.340 55.613,286.650 53.473,282.800 51.215 C 278.950 48.957,275.080 46.706,274.200 46.212 C 273.320 45.718,269.900 43.730,266.600 41.793 C 261.045 38.534,248.165 31.037,244.712 29.054 C 243.894 28.584,241.388 27.120,239.143 25.800 C 236.897 24.480,234.237 22.929,233.230 22.353 C 232.224 21.777,228.088 19.392,224.039 17.053 C 215.426 12.076,216.606 12.511,216.008 14.100 M156.391 27.539 C 153.426 29.265,147.670 32.614,143.600 34.981 C 139.530 37.347,134.580 40.237,132.600 41.402 C 130.620 42.566,128.280 43.916,127.400 44.402 C 126.520 44.887,123.910 46.406,121.600 47.777 C 119.290 49.148,114.790 51.772,111.600 53.608 C 108.410 55.445,103.910 58.057,101.600 59.414 C 90.523 65.921,71.288 77.114,68.800 78.500 C 68.030 78.930,65.780 80.234,63.800 81.400 C 61.820 82.565,56.870 85.455,52.800 87.822 C 48.730 90.188,42.250 93.961,38.400 96.205 C 34.550 98.448,30.815 100.585,30.100 100.952 L 28.800 101.621 28.800 171.301 L 28.800 240.982 30.226 238.816 C 31.440 236.974,35.293 230.727,36.600 228.482 C 37.002 227.792,39.567 223.634,42.578 218.791 C 44.410 215.843,44.523 215.658,46.839 211.800 C 47.764 210.260,49.273 207.830,50.193 206.400 C 52.361 203.030,55.917 197.331,56.806 195.800 C 57.190 195.140,58.685 192.710,60.129 190.400 C 62.325 186.888,66.159 180.653,68.119 177.404 C 68.384 176.966,69.161 175.706,69.847 174.604 C 70.533 173.502,72.167 170.876,73.478 168.768 C 74.790 166.660,75.986 164.680,76.137 164.368 C 76.288 164.056,77.661 161.820,79.188 159.400 C 80.715 156.980,83.278 152.868,84.882 150.263 C 86.487 147.657,88.160 144.947,88.600 144.241 C 89.040 143.534,90.364 141.346,91.542 139.378 C 92.720 137.410,93.912 135.530,94.190 135.200 C 94.468 134.870,95.148 133.790,95.699 132.800 C 96.251 131.810,97.883 129.110,99.326 126.800 C 103.221 120.564,106.480 115.257,107.539 113.424 C 108.056 112.531,109.066 110.900,109.784 109.800 C 110.502 108.700,111.862 106.540,112.807 105.000 C 113.751 103.460,115.621 100.433,116.962 98.272 C 118.303 96.112,119.808 93.603,120.307 92.696 C 120.806 91.789,121.453 90.767,121.744 90.424 C 122.036 90.081,123.338 88.029,124.637 85.863 C 125.937 83.698,127.360 81.347,127.800 80.638 C 130.158 76.841,133.606 71.229,136.329 66.758 C 138.018 63.986,140.390 60.140,141.600 58.212 C 146.214 50.861,147.419 48.921,148.000 47.907 C 148.572 46.911,150.428 43.900,155.960 35.000 C 157.327 32.800,158.660 30.640,158.923 30.200 C 159.185 29.760,159.888 28.637,160.484 27.704 C 163.131 23.561,163.217 23.564,156.391 27.539 M140.273 136.100 C 138.362 139.146,135.065 144.484,134.600 145.283 C 134.380 145.662,133.103 147.733,131.763 149.886 C 128.012 155.912,123.982 162.470,123.213 163.800 C 122.831 164.460,121.817 166.103,120.960 167.452 C 118.086 171.969,116.209 174.985,115.000 177.027 C 113.601 179.390,110.242 184.850,106.526 190.800 C 105.084 193.110,103.544 195.630,103.105 196.400 C 102.666 197.170,101.989 198.250,101.601 198.800 C 100.985 199.674,98.246 204.118,95.800 208.212 C 94.979 209.586,92.483 213.617,87.013 222.400 C 85.300 225.150,83.517 228.041,83.049 228.824 C 81.868 230.805,78.050 236.998,74.926 242.000 C 73.483 244.310,71.851 247.010,71.299 248.000 C 70.748 248.990,70.072 250.070,69.799 250.400 C 69.358 250.931,65.918 256.523,64.016 259.800 C 63.361 260.927,62.687 262.005,58.255 269.000 C 56.751 271.373,54.406 275.196,51.552 279.925 C 51.195 280.516,49.507 283.250,47.800 286.000 C 46.093 288.750,44.405 291.483,44.048 292.074 C 39.607 299.428,38.489 301.226,37.526 302.560 C 35.870 304.855,35.796 304.728,40.200 307.211 C 43.776 309.228,53.232 314.775,54.692 315.713 C 55.623 316.311,56.503 316.800,56.649 316.800 C 56.794 316.800,58.054 317.520,59.447 318.400 C 60.840 319.280,62.072 320.000,62.183 320.000 C 62.295 320.000,63.562 320.720,65.000 321.600 C 66.438 322.480,67.705 323.200,67.817 323.200 C 67.928 323.200,69.140 323.904,70.510 324.765 C 72.746 326.171,82.486 331.874,86.600 334.186 C 87.480 334.681,90.810 336.617,94.000 338.488 C 104.786 344.816,108.900 347.200,109.036 347.200 C 109.111 347.200,110.573 348.053,112.286 349.095 C 113.999 350.138,115.894 351.263,116.497 351.595 C 117.100 351.928,119.428 353.280,121.670 354.600 C 123.912 355.920,126.682 357.540,127.825 358.200 C 128.969 358.860,133.000 361.200,136.784 363.400 C 140.568 365.600,144.324 367.781,145.132 368.247 C 156.229 374.646,159.463 376.528,159.800 376.786 C 160.020 376.955,161.010 377.547,162.000 378.102 C 162.990 378.657,165.397 380.039,167.349 381.173 C 169.301 382.307,170.982 383.152,171.084 383.049 C 171.276 382.857,169.248 377.080,167.943 374.104 C 167.535 373.172,167.200 372.221,167.200 371.991 C 167.200 371.762,166.675 370.185,166.034 368.487 C 164.944 365.602,161.935 356.266,158.656 345.600 C 157.879 343.070,156.598 338.570,155.811 335.600 C 155.023 332.630,153.937 328.580,153.398 326.600 C 150.418 315.660,146.841 299.125,144.577 285.830 C 144.018 282.547,143.484 279.736,143.390 279.583 C 143.295 279.431,142.857 276.387,142.415 272.820 C 141.973 269.252,141.337 264.632,141.002 262.552 C 140.668 260.473,140.118 255.583,139.782 251.686 C 139.445 247.788,138.991 243.070,138.774 241.200 C 135.925 216.670,137.267 162.651,141.357 137.300 C 141.985 133.405,141.972 133.391,140.273 136.100 M368.354 146.563 C 367.829 147.533,366.230 150.357,364.800 152.838 C 363.370 155.320,361.727 158.171,361.149 159.175 C 360.571 160.179,358.166 164.330,355.804 168.400 C 353.442 172.470,351.104 176.520,350.608 177.400 C 350.111 178.280,348.066 181.790,346.062 185.200 C 344.059 188.610,341.988 192.210,341.460 193.200 C 340.932 194.190,338.568 198.330,336.206 202.400 C 333.843 206.470,331.506 210.520,331.012 211.400 C 330.519 212.280,328.897 215.070,327.408 217.600 C 325.920 220.130,324.319 222.872,323.851 223.693 C 323.383 224.514,321.309 228.114,319.242 231.693 C 317.175 235.272,315.046 239.010,314.512 240.000 C 313.978 240.990,313.126 242.430,312.618 243.200 C 312.111 243.970,310.279 247.103,308.548 250.163 C 306.816 253.222,304.950 256.498,304.400 257.441 C 302.943 259.941,298.394 267.797,297.000 270.220 C 296.340 271.367,294.156 275.162,292.148 278.653 C 290.139 282.144,288.092 285.720,287.599 286.600 C 287.106 287.480,285.845 289.640,284.798 291.400 C 281.942 296.202,278.954 301.369,274.158 309.800 C 271.780 313.980,269.287 318.302,268.618 319.405 C 267.948 320.509,267.130 321.896,266.800 322.489 C 266.125 323.703,261.046 332.506,255.313 342.400 C 253.210 346.030,251.079 349.746,250.579 350.657 C 250.078 351.569,249.224 353.009,248.680 353.857 C 248.137 354.706,246.277 357.903,244.546 360.963 C 242.816 364.022,240.950 367.298,240.400 368.243 C 236.828 374.377,234.400 378.709,234.400 378.948 C 234.400 379.278,235.489 378.678,245.200 372.999 C 249.270 370.619,253.257 368.296,254.059 367.836 C 257.054 366.121,264.572 361.770,265.961 360.949 C 266.752 360.480,270.730 358.163,274.800 355.800 C 278.870 353.436,282.740 351.185,283.400 350.797 C 284.060 350.410,286.580 348.942,289.000 347.536 C 291.420 346.129,293.850 344.691,294.400 344.340 C 294.950 343.989,298.794 341.744,302.943 339.351 C 307.092 336.958,311.263 334.550,312.212 334.000 C 313.161 333.450,315.960 331.830,318.432 330.400 C 323.672 327.369,323.617 327.401,333.229 321.787 C 348.173 313.058,357.837 307.445,359.200 306.703 C 359.970 306.283,362.670 304.718,365.200 303.223 L 369.800 300.507 369.901 222.653 C 369.958 178.872,369.850 144.800,369.655 144.800 C 369.464 144.800,368.879 145.593,368.354 146.563 " stroke="none" fill="#040404" fill-rule="evenodd"/>
    <path id="path1" d="M0.000 200.000 L 0.000 400.000 200.000 400.000 L 400.000 400.000 400.000 200.000 L 400.000 0.000 200.000 0.000 L 0.000 0.000 0.000 200.000 M224.039 17.053 C 228.088 19.392,232.224 21.777,233.230 22.353 C 234.237 22.929,236.897 24.480,239.143 25.800 C 241.388 27.120,243.894 28.584,244.712 29.054 C 248.165 31.037,261.045 38.534,266.600 41.793 C 269.900 43.730,273.320 45.718,274.200 46.212 C 275.080 46.706,278.950 48.957,282.800 51.215 C 286.650 53.473,290.340 55.613,291.000 55.970 C 292.118 56.574,296.336 59.057,301.660 62.246 C 302.903 62.991,304.043 63.600,304.193 63.600 C 304.342 63.600,305.395 64.206,306.532 64.946 C 307.669 65.687,310.915 67.622,313.745 69.246 C 316.575 70.871,319.658 72.650,320.596 73.200 C 321.534 73.750,325.249 75.890,328.851 77.955 C 332.453 80.020,335.850 82.019,336.400 82.398 C 336.950 82.776,338.300 83.582,339.400 84.188 C 342.665 85.987,346.863 88.447,349.000 89.815 C 350.100 90.519,351.389 91.215,351.864 91.363 C 354.142 92.070,354.263 91.707,348.363 101.907 C 346.293 105.486,344.217 109.086,343.749 109.907 C 343.281 110.728,341.680 113.470,340.193 116.000 C 338.705 118.530,337.018 121.426,336.444 122.435 C 334.880 125.185,327.234 138.481,326.687 139.400 C 326.426 139.840,325.534 141.321,324.706 142.690 C 323.878 144.060,323.200 145.252,323.200 145.340 C 323.200 145.551,318.451 153.736,317.078 155.892 C 316.485 156.823,316.000 157.650,316.000 157.731 C 316.000 157.812,314.086 161.190,311.747 165.239 C 309.408 169.288,307.023 173.421,306.447 174.425 C 302.972 180.482,300.070 185.514,299.200 186.989 C 298.650 187.921,297.142 190.555,295.849 192.842 C 294.557 195.129,292.729 198.260,291.788 199.800 C 290.846 201.340,289.635 203.410,289.096 204.400 C 288.557 205.390,286.425 209.128,284.358 212.707 C 282.291 216.286,280.217 219.886,279.749 220.707 C 279.281 221.528,277.685 224.270,276.202 226.800 C 274.719 229.330,273.102 232.120,272.608 233.000 C 272.115 233.880,269.774 237.930,267.407 242.000 C 265.040 246.070,262.822 249.940,262.477 250.600 C 262.133 251.260,261.255 252.736,260.526 253.881 C 259.797 255.025,259.200 256.037,259.200 256.130 C 259.200 256.223,258.004 258.347,256.543 260.850 C 255.081 263.352,253.481 266.120,252.986 267.000 C 252.492 267.880,250.154 271.930,247.791 276.000 C 245.427 280.070,243.023 284.221,242.447 285.225 C 239.492 290.376,236.313 295.890,235.889 296.600 C 235.627 297.040,234.734 298.521,233.906 299.890 C 233.078 301.260,232.400 302.452,232.400 302.540 C 232.400 302.627,231.204 304.747,229.743 307.250 C 228.281 309.752,226.681 312.520,226.186 313.400 C 225.692 314.280,223.353 318.330,220.990 322.400 C 218.626 326.470,216.287 330.520,215.793 331.400 C 215.298 332.280,213.683 335.070,212.203 337.600 C 209.249 342.649,208.456 344.023,205.211 349.717 C 202.706 354.110,202.914 354.186,201.047 348.200 C 196.026 332.097,194.692 327.665,193.584 323.400 C 192.898 320.760,191.795 316.530,191.133 314.000 C 187.463 299.970,183.314 278.858,181.398 264.464 C 180.861 260.429,180.249 256.109,180.037 254.864 C 179.825 253.619,179.547 251.340,179.420 249.800 C 179.292 248.260,178.835 243.040,178.403 238.200 C 175.764 208.637,176.518 173.531,180.404 145.000 C 180.823 141.920,181.453 137.240,181.802 134.600 C 182.152 131.960,182.690 128.540,182.996 127.000 C 183.303 125.460,183.767 122.940,184.028 121.400 C 185.468 112.890,189.820 92.870,191.768 85.800 C 192.071 84.700,192.983 81.280,193.796 78.200 C 195.111 73.216,198.612 61.604,201.333 53.200 C 202.410 49.874,209.408 30.263,209.969 29.000 C 210.164 28.560,211.085 26.310,212.016 24.000 C 212.947 21.690,214.116 18.810,214.614 17.600 C 215.111 16.390,215.739 14.815,216.008 14.100 C 216.606 12.511,215.426 12.076,224.039 17.053 M161.998 25.204 C 161.761 25.646,161.080 26.771,160.484 27.704 C 159.888 28.637,159.185 29.760,158.923 30.200 C 158.660 30.640,157.327 32.800,155.960 35.000 C 150.428 43.900,148.572 46.911,148.000 47.907 C 147.419 48.921,146.214 50.861,141.600 58.212 C 140.390 60.140,138.018 63.986,136.329 66.758 C 133.606 71.229,130.158 76.841,127.800 80.638 C 127.360 81.347,125.937 83.698,124.637 85.863 C 123.338 88.029,122.036 90.081,121.744 90.424 C 121.453 90.767,120.806 91.789,120.307 92.696 C 119.808 93.603,118.303 96.112,116.962 98.272 C 115.621 100.433,113.751 103.460,112.807 105.000 C 111.862 106.540,110.502 108.700,109.784 109.800 C 109.066 110.900,108.056 112.531,107.539 113.424 C 106.480 115.257,103.221 120.564,99.326 126.800 C 97.883 129.110,96.251 131.810,95.699 132.800 C 95.148 133.790,94.468 134.870,94.190 135.200 C 93.912 135.530,92.720 137.410,91.542 139.378 C 90.364 141.346,89.040 143.534,88.600 144.241 C 88.160 144.947,86.487 147.657,84.882 150.263 C 83.278 152.868,80.715 156.980,79.188 159.400 C 77.661 161.820,76.288 164.056,76.137 164.368 C 75.986 164.680,74.790 166.660,73.478 168.768 C 72.167 170.876,70.533 173.502,69.847 174.604 C 69.161 175.706,68.384 176.966,68.119 177.404 C 66.159 180.653,62.325 186.888,60.129 190.400 C 58.685 192.710,57.190 195.140,56.806 195.800 C 55.917 197.331,52.361 203.030,50.193 206.400 C 49.273 207.830,47.764 210.260,46.839 211.800 C 44.523 215.658,44.410 215.843,42.578 218.791 C 39.567 223.634,37.002 227.792,36.600 228.482 C 35.293 230.727,31.440 236.974,30.226 238.816 L 28.800 240.982 28.800 171.301 L 28.800 101.621 30.100 100.952 C 30.815 100.585,34.550 98.448,38.400 96.205 C 42.250 93.961,48.730 90.188,52.800 87.822 C 56.870 85.455,61.820 82.565,63.800 81.400 C 65.780 80.234,68.030 78.930,68.800 78.500 C 71.288 77.114,90.523 65.921,101.600 59.414 C 103.910 58.057,108.410 55.445,111.600 53.608 C 114.790 51.772,119.290 49.148,121.600 47.777 C 123.910 46.406,126.520 44.887,127.400 44.402 C 128.280 43.916,130.620 42.566,132.600 41.402 C 134.580 40.237,139.530 37.347,143.600 34.981 C 147.670 32.614,153.426 29.265,156.391 27.539 C 162.181 24.168,162.659 23.968,161.998 25.204 M141.357 137.300 C 137.267 162.651,135.925 216.670,138.774 241.200 C 138.991 243.070,139.445 247.788,139.782 251.686 C 140.118 255.583,140.668 260.473,141.002 262.552 C 141.337 264.632,141.973 269.252,142.415 272.820 C 142.857 276.387,143.295 279.431,143.390 279.583 C 143.484 279.736,144.018 282.547,144.577 285.830 C 146.841 299.125,150.418 315.660,153.398 326.600 C 153.937 328.580,155.023 332.630,155.811 335.600 C 156.598 338.570,157.879 343.070,158.656 345.600 C 161.935 356.266,164.944 365.602,166.034 368.487 C 166.675 370.185,167.200 371.762,167.200 371.991 C 167.200 372.221,167.535 373.172,167.943 374.104 C 169.248 377.080,171.276 382.857,171.084 383.049 C 170.982 383.152,169.301 382.307,167.349 381.173 C 165.397 380.039,162.990 378.657,162.000 378.102 C 161.010 377.547,160.020 376.955,159.800 376.786 C 159.463 376.528,156.229 374.646,145.132 368.247 C 144.324 367.781,140.568 365.600,136.784 363.400 C 133.000 361.200,128.969 358.860,127.825 358.200 C 126.682 357.540,123.912 355.920,121.670 354.600 C 119.428 353.280,117.100 351.928,116.497 351.595 C 115.894 351.263,113.999 350.138,112.286 349.095 C 110.573 348.053,109.111 347.200,109.036 347.200 C 108.900 347.200,104.786 344.816,94.000 338.488 C 90.810 336.617,87.480 334.681,86.600 334.186 C 82.486 331.874,72.746 326.171,70.510 324.765 C 69.140 323.904,67.928 323.200,67.817 323.200 C 67.705 323.200,66.438 322.480,65.000 321.600 C 63.562 320.720,62.295 320.000,62.183 320.000 C 62.072 320.000,60.840 319.280,59.447 318.400 C 58.054 317.520,56.794 316.800,56.649 316.800 C 56.503 316.800,55.623 316.311,54.692 315.713 C 53.232 314.775,43.776 309.228,40.200 307.211 C 35.796 304.728,35.870 304.855,37.526 302.560 C 38.489 301.226,39.607 299.428,44.048 292.074 C 44.405 291.483,46.093 288.750,47.800 286.000 C 49.507 283.250,51.195 280.516,51.552 279.925 C 54.406 275.196,56.751 271.373,58.255 269.000 C 62.687 262.005,63.361 260.927,64.016 259.800 C 65.918 256.523,69.358 250.931,69.799 250.400 C 70.072 250.070,70.748 248.990,71.299 248.000 C 71.851 247.010,73.483 244.310,74.926 242.000 C 78.050 236.998,81.868 230.805,83.049 228.824 C 83.517 228.041,85.300 225.150,87.013 222.400 C 92.483 213.617,94.979 209.586,95.800 208.212 C 98.246 204.118,100.985 199.674,101.601 198.800 C 101.989 198.250,102.666 197.170,103.105 196.400 C 103.544 195.630,105.084 193.110,106.526 190.800 C 110.242 184.850,113.601 179.390,115.000 177.027 C 116.209 174.985,118.086 171.969,120.960 167.452 C 121.817 166.103,122.831 164.460,123.213 163.800 C 123.982 162.470,128.012 155.912,131.763 149.886 C 133.103 147.733,134.380 145.662,134.600 145.283 C 135.065 144.484,138.362 139.146,140.273 136.100 C 141.972 133.391,141.985 133.405,141.357 137.300 M369.901 222.653 L 369.800 300.507 365.200 303.223 C 362.670 304.718,359.970 306.283,359.200 306.703 C 357.837 307.445,348.173 313.058,333.229 321.787 C 323.617 327.401,323.672 327.369,318.432 330.400 C 315.960 331.830,313.161 333.450,312.212 334.000 C 311.263 334.550,307.092 336.958,302.943 339.351 C 298.794 341.744,294.950 343.989,294.400 344.340 C 293.850 344.691,291.420 346.129,289.000 347.536 C 286.580 348.942,284.060 350.410,283.400 350.797 C 282.740 351.185,278.870 353.436,274.800 355.800 C 270.730 358.163,266.752 360.480,265.961 360.949 C 264.572 361.770,257.054 366.121,254.059 367.836 C 253.257 368.296,249.270 370.619,245.200 372.999 C 235.489 378.678,234.400 379.278,234.400 378.948 C 234.400 378.709,236.828 374.377,240.400 368.243 C 240.950 367.298,242.816 364.022,244.546 360.963 C 246.277 357.903,248.137 354.706,248.680 353.857 C 249.224 353.009,250.078 351.569,250.579 350.657 C 251.079 349.746,253.210 346.030,255.313 342.400 C 261.046 332.506,266.125 323.703,266.800 322.489 C 267.130 321.896,267.948 320.509,268.618 319.405 C 269.287 318.302,271.780 313.980,274.158 309.800 C 278.954 301.369,281.942 296.202,284.798 291.400 C 285.845 289.640,287.106 287.480,287.599 286.600 C 288.092 285.720,290.139 282.144,292.148 278.653 C 294.156 275.162,296.340 271.367,297.000 270.220 C 298.394 267.797,302.943 259.941,304.400 257.441 C 304.950 256.498,306.816 253.222,308.548 250.163 C 310.279 247.103,312.111 243.970,312.618 243.200 C 313.126 242.430,313.978 240.990,314.512 240.000 C 315.046 239.010,317.175 235.272,319.242 231.693 C 321.309 228.114,323.383 224.514,323.851 223.693 C 324.319 222.872,325.920 220.130,327.408 217.600 C 328.897 215.070,330.519 212.280,331.012 211.400 C 331.506 210.520,333.843 206.470,336.206 202.400 C 338.568 198.330,340.932 194.190,341.460 193.200 C 341.988 192.210,344.059 188.610,346.062 185.200 C 348.066 181.790,350.111 178.280,350.608 177.400 C 351.104 176.520,353.442 172.470,355.804 168.400 C 358.166 164.330,360.571 160.179,361.149 159.175 C 361.727 158.171,363.370 155.320,364.800 152.838 C 366.230 150.357,367.829 147.533,368.354 146.563 C 368.879 145.593,369.464 144.800,369.655 144.800 C 369.850 144.800,369.958 178.872,369.901 222.653 " stroke="none" fill="transparent" fill-rule="evenodd"/>
  </g>
</svg>